<?xml version="1.0" encoding="UTF-8"?>
<svg width="100pt" height="100pt" version="1.1" viewBox="0 0 700 700" xmlns="http://www.w3.org/2000/svg" xmlns:xlink="http://www.w3.org/1999/xlink">
 <defs>
 
 </defs>
 <g>
  <path d="m91.789 249.55-2.168-1.0859-0.011719 2.4258c-0.066406 12.48 2.0273 19.23 2.9297 21.555l0.35156 0.875 0.92578 0.078125c0.72656 0.0625 1.4297 0.09375 2.1172 0.09375 13.367 0 21.699-10.871 24.656-15.539l1.3984-2.2188-2.625-0.09375c-14.504-0.53906-23.508-4.0469-27.574-6.0898zm0.85156 3.7148c4.5938 1.9883 12.488 4.5117 23.918 5.2461-3.6133 4.8945-10.871 12.355-21.539 11.945-0.77734-2.3594-2.2148-7.9102-2.3789-17.191z"></path>
  <path d="m455.97 242.09 2.0781-2.1836-2.9961-0.34766c-4.1602-0.48828-6.8555-0.77344-7.5273-0.84375l-0.30078-0.09375c-17.387-9.9062-56.902-24.656-75.926-31.754l-7.5547-2.8281-0.16797 1.9766c-0.15625 1.8359-0.62891 3.2578-0.99219 4.1289l-0.59766 1.4336 1.4609 0.55469c24.59 9.3008 46.234 19.707 62.031 27.301 3.8359 1.8438 7.2305 3.4844 10.191 4.8672 3.3555 1.5742 6.5508 2.3633 9.5156 2.3633 5.3203 0 8.7969-2.4883 10.785-4.5742zm-4.8711 0.046875c-3.0898 1.7578-8.3438 2.1445-14.133-0.56641-2.9648-1.3789-6.3516-3.0117-10.117-4.8242-15.613-7.5078-36.812-17.703-60.949-26.914 0.14062-0.48047 0.28516-1.0312 0.40234-1.625l3.8203 1.4297c19.125 7.1328 58.637 21.887 75.746 31.68l1.1914 0.37891c0.10547 0.011719 1.5352 0.15625 4.0391 0.44141z"></path>
  <path d="m607.28 285.46 2.4062-1.0859-2.1562-1.5195c-3.1602-2.2305-10.121-6.7812-21.168-12.246l-0.44141-0.13281c-2.3516-0.35156-14.598-2.1016-25.227-2.1094h-3.3203l2.1953 2.4961c3.5156 4.0078 10.82 11.297 20.262 15.008 3.6797 0.72266 9.6641 1.4766 15.344 1.4766 5.2461 0 9.3203-0.63281 12.105-1.8867zm-4.0117-1.8594c-2.1719 0.48047-4.9102 0.72656-8.0938 0.72656-5.4727 0-11.238-0.72266-14.516-1.3477-6.8867-2.7344-12.707-7.7109-16.453-11.547 9.2891 0.3125 19.059 1.6875 21.039 1.9766 8.3984 4.1719 14.355 7.7734 18.023 10.191z"></path>
  <path d="m484.91 316.41c0 22.418 18.176 40.594 40.594 40.594 22.418 0 40.605-18.176 40.605-40.594 0-22.43-18.188-40.605-40.605-40.605-22.414 0-40.594 18.18-40.594 40.605zm37.598-7.2734-13.227-13.223c3.7109-2.9531 8.25-4.9102 13.227-5.4805zm6.0156-18.703c4.9688 0.57031 9.4922 2.5273 13.211 5.4805l-13.211 13.223zm17.473 9.7383c2.9531 3.7188 4.9102 8.2617 5.4883 13.223h-18.703zm5.4883 19.246c-0.58203 4.9688-2.5352 9.5039-5.4805 13.223l-13.223-13.223zm-9.7461 17.484c-3.7227 2.9453-8.2539 4.9062-13.215 5.4766v-18.703zm-19.23 5.4766c-4.9844-0.57031-9.5156-2.5273-13.227-5.4766l13.227-13.227zm-17.488-9.7383c-2.9453-3.7188-4.9062-8.2617-5.4766-13.223h18.699zm-5.4766-19.246c0.57031-4.9688 2.5273-9.5039 5.4805-13.223l13.215 13.223z"></path>
  <path d="m88.781 297.14c0.63281 2.6133 1.332 5.4883 2.0117 8.6367 3.6289 17.051 12.438 18.043 12.926 18.082l33.32 5.3945 8.2383 0.44922c-1.3086-4.3672-1.9805-8.8242-1.9805-13.289 0-25.688 20.887-46.574 46.562-46.574s46.562 20.887 46.562 46.574c0 6.1953-1.2383 12.234-3.6562 17.977l239.39-0.37109s4.0195 0.19531 10.488 0.49219c-2.4531-5.7734-3.707-11.859-3.707-18.094 0-25.688 20.895-46.574 46.562-46.574 25.68 0 46.562 20.887 46.562 46.574 0 7.043-1.6172 14.035-4.6992 20.371 1.0938-0.023437 2.1445-0.039062 3.1523-0.074218 28.219-0.73438 40.719-4.8711 42.242-7.4805 0.14062-0.23047 0.14453-0.37109 0.015625-0.60547-1.9141-3.6172-1.3672-7.8047-0.54297-14.129 0.42188-3.1992 0.94141-7.1836 1.2422-11.969 0.6875-10.93-3.0625-15.371-4.168-16.438-3.5039 2.1211-8.8594 2.7734-14.102 2.7734-7.6562 0-15.004-1.3711-15.668-1.5195-13.766-5.375-22.82-17.5-23.207-18.02l-1.6797-2.2773 2.8281-0.11719c6.293-0.26953 13.625 0.27344 19.344 0.875-5-2.2227-10.602-4.5234-16.832-6.8438-26.098-9.6836-78.625-16.734-101.59-19.492-1.4766 1.9805-5.7461 6.6914-13.266 6.6914-2.8828 0-6.25-0.69922-10.113-2.5039-2.9688-1.3945-6.3789-3.0352-10.152-4.8477-16.18-7.7773-38.328-18.43-63.547-27.871l-1.7695-0.67578 1.0586-1.5781c0.011719-0.023438 1.3906-2.1836 1.4883-5.6719-0.92969-0.35938-1.6758-0.65625-2.1562-0.85156-1.8242-0.77734-3.5117-1.1719-4.9883-1.1719-1.6172 0-2.5586 0.47656-2.9219 0.71094-1.832 4.4648-4.6719 7.9023-6.3945 9.7109 15.824 9.1328 44.25 19.633 44.547 19.738l1.0625 0.39844-0.96875 12.773-75.68-4.0195 0.035156-1.4609c0.12891-5.0664-0.82812-19.621-6.9375-19.992-5.6602 0-8.0625 13.402-8.4609 18.09l-0.125 1.4727-69.434-4.4688 0.0625-1.4688c0.19141-5.0664-0.54297-8.0859-2.4531-10.078-2.4961-2.5859-7.2617-3.7188-15.125-3.5156-14.941 0.35156-16.895 8.3789-16.969 8.707l-0.20703 1.043-1.0469 0.15234c-9.582 1.3984-34.691 4.1602-35.219 4.1992-4.6328-0.33594-9.4883-0.5-14.441-0.5-25.402 0-47.605 4.3867-52.617 5.4492-0.25781 2.7109-0.40234 5.2266-0.50391 7.5781 2.6133 1.4727 12.77 6.4609 30.734 6.668l2.375 0.035156-1.043 2.1406c-0.10156 0.19531-9.3672 18.664-27.273 18.664-0.88672 0-1.7969-0.074219-2.7383-0.16797-8.8516 4.1758-7.5586 9.5391-4.4297 22.289zm225.08-33.453c-0.125 1.3828-1.3398 2.4023-2.7266 2.2773l-22.695-2.0312c-1.3828-0.11719-2.3906-1.3398-2.2734-2.7148 0.11719-1.3906 1.3398-2.4023 2.7148-2.2852l22.707 2.0273c1.3789 0.12891 2.3906 1.3438 2.2734 2.7266zm102.34-20.77c0 3.7188-7.9297 6.7266-17.723 6.7266v-13.445c9.793-0.003907 17.723 3.0039 17.723 6.7188zm-140.62 28.703 7.1836 14.141 3.668 6.9844c1.2539 2.3125 2.4023 4.6523 3.7227 6.9336l3.9648 6.8672 0.99219 1.7148c0.25391 0.39062 0.73438 0.91406 1.0938 1.3594 0.74609 0.93359 1.4766 1.8828 2.4688 2.5938l1.3672 1.1641c0.46875 0.37109 1.0312 0.65625 1.5273 0.98438 0.99219 0.68359 2.0898 1.2148 3.2031 1.6914 1.082 0.57031 2.2969 0.83594 3.4336 1.2422 1.125 0.30078 2.3633 0.58984 3.3828 0.69922 10.281 0.10547 20.539 0.38672 30.801 0.58203l30.91 0.94531c10.293 0.42578 20.598 0.75781 30.891 1.2617 9.8125 0.46875 19.629 0.94141 29.434 1.5234 0.81641-1.6523 1.6562-3.2969 2.2773-5.0391 0.40234-1.1016 0.91406-2.1719 1.2695-3.293l1.1016-3.3594c0.375-1.1133 0.61719-2.2773 0.93359-3.4219 0.32422-1.1367 0.61719-2.2891 0.82812-3.457 0.53125-2.3242 0.90625-4.6719 1.3047-7.0352 0.71875-4.7227 1.1797-9.4922 1.3711-14.309 0.15234-4.8008 0.17969-9.6367-0.12891-14.465 0.90625 4.7617 1.4336 9.6055 1.6445 14.461 0.24219 4.8594 0.19531 9.7422-0.11719 14.633-0.16406 2.4453-0.42969 4.8828-0.81641 7.3086-0.14062 1.2266-0.375 2.4375-0.62109 3.6406-0.25391 1.2109-0.4375 2.4297-0.76172 3.6172l-0.92969 3.6055c-0.29688 1.2109-0.76562 2.3633-1.1484 3.543-0.72266 2.3789-1.8555 4.6328-2.8242 6.9492l-0.51953 1.2422-1.5742-0.015626c-10.316-0.085937-20.613-0.3125-30.918-0.52734-10.305-0.20312-20.609-0.58984-30.918-0.86719l-30.883-1.1758c-10.305-0.51953-20.598-0.94141-30.891-1.5469l-0.16406-0.003906-0.027344-0.015625c-1.5898-0.24219-2.8789-0.63281-4.2617-1.0586-1.3281-0.51953-2.6875-0.92578-3.9375-1.6289-1.2891-0.61719-2.5352-1.3008-3.6953-2.168-0.58203-0.42188-1.1992-0.78516-1.7461-1.25l-1.5664-1.4844c-1.1094-0.93359-1.9414-2.1289-2.7734-3.3086-0.41406-0.61719-0.83594-1.0859-1.2422-1.832l-0.88672-1.7734-3.5234-7.1055c-0.59766-1.1758-1.0703-2.4414-1.6055-3.6641l-1.5508-3.6836-3.0703-7.3516c-1.9492-4.9336-3.9023-9.8555-5.6719-14.848z"></path>
  <path d="m149.26 316.41c0 22.41 18.176 40.59 40.594 40.59s40.605-18.176 40.605-40.59c0-22.43-18.188-40.609-40.605-40.609-22.414 0-40.594 18.184-40.594 40.609zm37.582-7.2734-13.211-13.223c3.7188-2.9531 8.25-4.9102 13.211-5.4805zm6.0273-18.703c4.9688 0.57031 9.4961 2.5273 13.223 5.4805l-13.223 13.223zm17.48 9.7383c2.9531 3.7188 4.9102 8.2539 5.4805 13.215h-18.703zm5.4766 19.234c-0.57031 4.9766-2.5273 9.5156-5.4805 13.227l-13.223-13.227zm-9.7305 17.488c-3.7188 2.9453-8.2617 4.9062-13.223 5.4766v-18.703zm-19.254 5.4766c-4.9688-0.57031-9.4922-2.5273-13.211-5.4766l13.211-13.227zm-17.477-9.7383c-2.9531-3.7109-4.9102-8.2539-5.4805-13.227h18.703zm-5.4766-19.246c0.57812-4.9688 2.5273-9.4961 5.4883-13.215l13.211 13.215z"></path>
 
 </g>
</svg>
