<?xml version="1.0" encoding="UTF-8"?>
<svg width="=60pt" height="60pt" id="wheel" version="1.1" viewBox="100 100 100 100" xmlns="http://www.w3.org/2000/svg" xmlns:xlink="http://www.w3.org/1999/xlink">
 <defs>
 
 </defs>
 <g>
  <path d="m350.06 11.961c234.39 0 352.23 277.89 199.6 447.68-111.72 124.24-311.27 116.43-412.9-16.496-132.72-173.61-10.988-431.18 213.3-431.18zm-0.015625 53.711c187.42 0 281.66 222.2 159.6 357.96-89.328 99.34-248.89 93.09-330.16-13.188-106.12-138.82-8.7852-344.77 170.55-344.77zm0 13.121c175.95 0 264.4 208.61 149.84 336.05-83.867 93.258-233.66 87.395-309.95-12.383-99.625-130.32-8.25-323.67 160.12-323.67zm22.094 199.03c6.5352 19.473-13.254 37.027-31.633 29.098-13.441-5.8125-18.363-22.613-10.148-34.777 10.703-15.875 35.5-12.953 41.781 5.6797zm-7.5078-179.58c4.168 0.32031 8.2656 0.77344 12.316 1.3438-0.70703 26.93-1.3594 53.828-1.3086 80.691 0.035156 10.852-0.40234 48.77 9.7266 56.129 10.113 7.3398 46.066-4.7539 56.383-8.0977 24.547-7.9141 48.922-16.48 73.301-25.098 1.7305 3.7461 3.3281 7.543 4.8203 11.391-168.12 59.238-159.59 64.242-155.23-116.36zm163.55 144.16c0.875 4.0508 1.6133 8.1133 2.2188 12.23-24.395 7.2422-48.738 14.516-72.828 22.41-10.332 3.375-46.52 14.699-50.402 26.613-3.8633 11.895 18.766 42.32 25.133 51.121 14.094 19.488 28.68 38.656 43.344 57.809-3.0234 2.8555-6.0977 5.5938-9.2578 8.2148-104.43-136.32-105.69-128.5 61.793-178.37zm-85.363 194.88c-3.5781 2.1016-7.2227 4.0664-10.922 5.9141-13.508-19.605-27.047-39.145-41.043-58.332-6.4023-8.7695-28.359-39.699-40.875-39.699-12.516 0-34.457 30.93-40.875 39.699-13.977 19.152-27.52 38.656-40.992 58.246-3.6953-1.832-7.3242-3.7969-10.922-5.8984 96.082-139.59 89.477-139.57 185.61 0.085938zm-209.2-16.547c-3.1602-2.6211-6.25-5.3594-9.2578-8.2148 14.648-19.117 29.215-38.27 43.312-57.758 6.3516-8.8047 28.996-39.227 25.133-51.121-3.8633-11.91-40.07-23.234-50.402-26.613-24.109-7.8945-48.453-15.172-72.844-22.41 0.60547-4.0977 1.3438-8.1836 2.2344-12.215 167.45 49.879 166.22 42.066 61.824 178.33zm-53.492-206.12c1.4766-3.8477 3.0898-7.6445 4.8203-11.391 24.379 8.6172 48.754 17.188 73.281 25.098 10.332 3.3438 46.27 15.438 56.383 8.0977 10.113-7.3594 9.6953-45.277 9.7266-56.129 0.050781-26.848-0.62109-53.762-1.3086-80.676 4.0508-0.57031 8.1484-1.0234 12.316-1.3438 4.3516 180.59 12.887 175.58-155.21 116.34zm226.58 51.508c-3.6797-10.938-18.465-12.062-23.992-2.3008-4.0508 7.1562-0.55469 16.328 7.2422 19 10.18 3.4609 20.277-6.25 16.75-16.699zm-21.688 67.855c9.3398-6.7539 6.0469-21.219-4.9219-23.586-8.0469-1.7656-15.773 4.3008-16.012 12.531-0.30078 10.734 11.98 17.523 20.918 11.055zm-69.789 0.32031c9.4062 6.6523 22.023-1.1758 20.715-12.316-0.95703-8.1641-9.207-13.508-17.051-11.055-10.266 3.2266-12.668 17.02-3.6641 23.387zm-21.992-68.695c-3.7617 10.887 7.2578 20.832 17.605 16.465 7.5586-3.1914 10.398-12.602 5.8633-19.453-5.9453-8.9727-19.875-7.4414-23.469 2.9922zm56.734-40.422c-11.523 0-17.32 13.676-9.8125 22.008 5.4922 6.1172 15.32 5.7461 20.312-0.80469 6.5352-8.5352 0.53906-21.219-10.5-21.219z" fill-rule="evenodd"></path>
  
 </g>
</svg>
